<?xml version="1.0" encoding="UTF-8" standalone="no"?> <svg id="Layer_1" data-name="Layer 1" xmlns="http://www.w3.org/2000/svg" viewBox="0 0 128 128"><defs><style>.cls-1{fill:#2e79bd;}.cls-2{fill:#2d3e50;}</style></defs><title>b</title><path class="cls-1" d="M92.91326,47.16733H81.142a1.71521,1.71521,0,1,0,0,3.43043H92.91326a1.71521,1.71521,0,0,0,0-3.43043Z"/><path class="cls-1" d="M72.81769,47.16733H60.33092a1.71521,1.71521,0,0,0,0,3.43043h12.487a1.71521,1.71521,0,0,0-.00025-3.43043Z"/><path class="cls-1" d="M35.35753,56.84123H47.8443a1.71721,1.71721,0,0,0,1.71517-1.71542V42.6392a1.71717,1.71717,0,0,0-1.71517-1.71526H35.35753a1.71724,1.71724,0,0,0-1.71526,1.71526V55.12581A1.71728,1.71728,0,0,0,35.35753,56.84123Zm1.71526-12.48661h9.056v9.0561h-9.056Z"/><path class="cls-1" d="M92.91326,88.47071H81.142a1.71513,1.71513,0,1,0,0,3.43026H92.91326a1.71513,1.71513,0,0,0,0-3.43026Z"/><path class="cls-1" d="M72.81769,88.47071H60.33092a1.71513,1.71513,0,1,0,0,3.43026h12.487a1.71513,1.71513,0,0,0-.00025-3.43026Z"/><path class="cls-1" d="M47.8443,82.22724H35.35753a1.71724,1.71724,0,0,0-1.71526,1.71526V96.42919a1.71724,1.71724,0,0,0,1.71526,1.71526H47.8443a1.71717,1.71717,0,0,0,1.71517-1.71526V83.9425A1.71717,1.71717,0,0,0,47.8443,82.22724ZM46.1288,94.71394h-9.056V85.658h9.056Z"/><path class="cls-1" d="M92.91326,67.81894H81.142a1.71526,1.71526,0,1,0,0,3.43051H92.91326a1.71526,1.71526,0,0,0,0-3.43051Z"/><path class="cls-1" d="M72.81769,67.81894H60.33092a1.71526,1.71526,0,0,0,0,3.43051h12.487a1.71526,1.71526,0,0,0-.00025-3.43051Z"/><path class="cls-1" d="M49.31986,63.98709a1.74766,1.74766,0,0,0-2.46879.00025l-7.38982,7.38957-3.11033-3.11024a1.74587,1.74587,0,1,0-2.469,2.46912l4.34476,4.3446a1.74564,1.74564,0,0,0,2.46854.00025L49.31995,66.456a1.74716,1.74716,0,0,0,0-2.46887Z"/><path class="cls-2" d="M100.37471,13.43813H85.53749l-1.51216-8.4917a3.26738,3.26738,0,0,0-3.19315-2.5766H47.17368a3.26729,3.26729,0,0,0-3.19307,2.5766l-1.518,8.4917H27.62538A12.90461,12.90461,0,0,0,14.73659,26.32692v86.41455a12.90642,12.90642,0,0,0,12.88879,12.8887h72.74933a12.90446,12.90446,0,0,0,12.8887-12.8887V26.32692A12.90265,12.90265,0,0,0,100.37471,13.43813Zm-36.51424-8.512A2.9779,2.9779,0,1,1,60.88253,7.904,2.978,2.978,0,0,1,63.86047,4.92612Zm41.26026,107.81535a4.751,4.751,0,0,1-4.746,4.746H27.62538a4.75289,4.75289,0,0,1-4.746-4.746V26.32692a4.75291,4.75291,0,0,1,4.746-4.7461H41.00852l-.00293.01454H86.99449l-.00293-.01454h13.38314a4.751,4.751,0,0,1,4.746,4.7461Z"/></svg>